<svg width="100" height="50" viewBox="0 0 100 50" fill="none" xmlns="http://www.w3.org/2000/svg">
<rect x="0.5" y="0.5" width="99" height="49" rx="24.5" fill="#040000" stroke="white"/>
<path d="M37.1076 28.9H40.5476C41.4142 28.9 42.0876 28.6867 42.5676 28.26C43.0609 27.82 43.3076 27.1933 43.3076 26.38C43.3076 25.54 43.0276 24.8933 42.4676 24.44C41.9209 23.9733 41.1542 23.74 40.1676 23.74H37.1076V28.9ZM37.1076 17.62V22.64H39.5276C40.6876 22.64 41.5409 22.3933 42.0876 21.9C42.6342 21.3933 42.9076 20.7533 42.9076 19.98C42.9076 19.3133 42.6409 18.7533 42.1076 18.3C41.5876 17.8467 40.8076 17.62 39.7676 17.62H37.1076ZM35.8676 16.52H39.6276C40.9876 16.52 42.0876 16.8333 42.9276 17.46C43.7809 18.0733 44.2076 18.9267 44.2076 20.02C44.2076 20.82 43.9809 21.5067 43.5276 22.08C43.0876 22.64 42.5142 22.9933 41.8076 23.14C42.5676 23.2333 43.2209 23.56 43.7676 24.12C44.3276 24.68 44.6076 25.4467 44.6076 26.42C44.6076 27.5 44.2542 28.3667 43.5476 29.02C42.8542 29.6733 41.8542 30 40.5476 30H35.8676V16.52ZM53.338 19.86H54.558V30H53.338V28.18C52.8047 29.4867 51.7314 30.14 50.118 30.14C49.1314 30.14 48.3447 29.8467 47.758 29.26C47.1847 28.66 46.898 27.8733 46.898 26.9V19.86H48.118V26.56C48.118 27.3333 48.318 27.9267 48.718 28.34C49.1314 28.7533 49.6714 28.96 50.338 28.96C51.2314 28.96 51.9514 28.64 52.498 28C53.058 27.36 53.338 26.5267 53.338 25.5V19.86ZM60.404 29.72L56.264 19.86H57.664L59.044 23.26L61.004 28.14C61.0973 27.8333 61.6773 26.2067 62.744 23.26L63.984 19.86H65.344L61.664 29.74C61.1573 31.1133 60.5573 32.06 59.864 32.58C59.1707 33.1 58.384 33.36 57.504 33.36C57.2373 33.36 56.984 33.3267 56.744 33.26V32.06C56.984 32.1267 57.2107 32.16 57.424 32.16C58.8507 32.16 59.844 31.3467 60.404 29.72Z" fill="white"/>
</svg>
