<svg width="355" height="355" viewBox="0 0 355 355" fill="none" xmlns="http://www.w3.org/2000/svg">
<circle cx="178" cy="178" r="175" fill="white"/>
<path opacity="0.978" fill-rule="evenodd" clip-rule="evenodd" d="M161.553 0C172.184 0 182.816 0 193.447 0C255.028 7.83628 301.599 38.3441 333.159 91.5234C345.065 113.511 352.345 136.855 355 161.553C355 172.184 355 182.816 355 193.447C347.967 251.337 320.232 296.29 271.797 328.306C247.466 343.37 221.119 352.267 192.754 355C182.584 355 172.416 355 162.246 355C94.0979 346.35 44.9849 311.219 14.9072 249.609C7.0056 231.583 2.03653 212.862 0 193.447C0 182.816 0 172.184 0 161.553C7.59152 100.493 37.6371 54.1532 90.1367 22.5342C112.504 10.1871 136.31 2.67572 161.553 0ZM165.02 43.6816C195.188 41.4849 223.154 48.1874 248.916 63.7891C257.292 57.9254 265.728 52.1474 274.224 46.4551C271.71 55.967 268.821 65.4429 265.557 74.8828C302.735 109.677 317.758 152.434 310.625 203.154C320.237 209.877 329.944 216.464 339.746 222.915C327.721 223.031 315.703 223.378 303.691 223.955C285.62 268.951 253.032 297.263 205.928 308.892C200.196 310.099 194.418 311.024 188.594 311.665C184.966 322.664 181.268 333.642 177.5 344.6C173.732 333.642 170.034 322.664 166.406 311.665C120.552 306.436 85.5377 284.363 61.3623 245.449C57.6321 238.452 54.2808 231.287 51.3086 223.955C39.297 223.378 27.2788 223.031 15.2539 222.915C24.1483 216.734 33.162 210.725 42.2949 204.888C43.6099 204.011 44.5344 202.855 45.0684 201.421C37.4526 151.689 52.1286 109.972 89.0967 76.2695C89.2125 75.8071 89.3276 75.3453 89.4434 74.8828C86.179 65.4429 83.2898 55.967 80.7764 46.4551C89.2721 52.1474 97.7082 57.9254 106.084 63.7891C124.321 52.7801 143.966 46.0776 165.02 43.6816Z" fill="black"/>
<path opacity="0.965" fill-rule="evenodd" clip-rule="evenodd" d="M171.953 63.0956C188.427 62.6259 204.374 65.2838 219.795 71.0693C223.5 72.4594 226.967 74.1928 230.195 76.2695C212.82 88.5586 195.256 100.577 177.5 112.324C159.744 100.577 142.18 88.5586 124.805 76.2695C131.276 72.4615 138.209 69.5729 145.605 67.6025C154.374 65.4095 163.157 63.9072 171.953 63.0956Z" fill="black"/>
<path opacity="0.929" fill-rule="evenodd" clip-rule="evenodd" d="M117.871 96.377C131.998 105.294 145.865 114.655 159.473 124.458C150.811 130.754 142.028 136.878 133.125 142.832C127.491 127.549 122.407 112.064 117.871 96.377Z" fill="black"/>
<path opacity="0.928" fill-rule="evenodd" clip-rule="evenodd" d="M235.742 96.377C236.433 96.3562 236.896 96.7029 237.129 97.417C232.379 112.706 227.294 127.845 221.875 142.832C212.972 136.878 204.189 130.754 195.527 124.458C209.057 115.193 222.462 105.832 235.742 96.377Z" fill="black"/>
<path opacity="0.965" fill-rule="evenodd" clip-rule="evenodd" d="M95.6836 97.0703C96.3749 97.0495 96.8374 97.3962 97.0703 98.1104C102.964 116.254 108.857 134.396 114.751 152.539C115.213 153.463 115.213 154.388 114.751 155.313C97.6888 166.598 80.8173 178.154 64.1358 189.98C60.1949 154.076 70.7109 123.106 95.6836 97.0703Z" fill="black"/>
<path opacity="0.965" fill-rule="evenodd" clip-rule="evenodd" d="M257.93 97.0703C260.635 98.7295 263.062 100.81 265.21 103.311C286.108 128.563 294.66 157.452 290.864 189.98C274.183 178.154 257.311 166.598 240.249 155.312C239.786 154.388 239.786 153.463 240.249 152.539C246.357 134.101 252.25 115.611 257.93 97.0703Z" fill="black"/>
<path opacity="0.979" fill-rule="evenodd" clip-rule="evenodd" d="M176.807 136.592C189.703 144.972 202.53 153.523 215.288 162.246C211.612 175.707 207.567 189.112 203.154 202.461C186.051 202.461 168.949 202.461 151.846 202.461C147.433 189.112 143.388 175.707 139.712 162.246C152.304 153.935 164.669 145.384 176.807 136.592Z" fill="black"/>
<path opacity="0.952" fill-rule="evenodd" clip-rule="evenodd" d="M121.338 174.727C124.825 183.567 128.061 192.581 131.045 201.768C114.409 202.576 97.7685 202.692 81.123 202.114C94.6942 193.141 108.099 184.011 121.338 174.727Z" fill="black"/>
<path opacity="0.953" fill-rule="evenodd" clip-rule="evenodd" d="M232.969 174.727C246.585 183.848 260.221 192.978 273.877 202.114C257.231 202.692 240.591 202.576 223.955 201.768C227.102 192.789 230.107 183.775 232.969 174.727Z" fill="black"/>
<path opacity="0.976" fill-rule="evenodd" clip-rule="evenodd" d="M72.8027 223.262C94.5326 223.031 116.258 223.262 137.979 223.955C145.426 246.066 152.59 268.253 159.473 290.518C118.738 283.225 89.8483 260.806 72.8027 223.262Z" fill="black"/>
<path opacity="0.954" fill-rule="evenodd" clip-rule="evenodd" d="M158.779 223.955C171.141 223.149 183.622 223.034 196.221 223.608C190.05 242.234 183.81 260.84 177.5 279.424C171.24 260.873 164.999 242.384 158.779 223.955Z" fill="black"/>
<path opacity="0.976" fill-rule="evenodd" clip-rule="evenodd" d="M217.021 223.262C238.751 223.031 260.477 223.262 282.197 223.955C264.766 260.991 235.876 283.178 195.527 290.518C202.552 268.057 209.717 245.638 217.021 223.262Z" fill="black"/>
</svg>
